HIERARCHY
ROOT hip
{
  OFFSET 0 0 0
  CHANNELS 6 Xposition Yposition Zposition Zrotation Yrotation Xrotation
  JOINT abdomen
  {
    OFFSET 0 20.6881 -0.73152
    CHANNELS 3 Zrotation Xrotation Yrotation
    JOINT chest
    {
      OFFSET 0 11.7043 -0.48768
      CHANNELS 3 Zrotation Xrotation Yrotation
      JOINT neck
      {
        OFFSET 0 22.1894 -2.19456
        CHANNELS 3 Zrotation Xrotation Yrotation
        JOINT head
        {
          OFFSET -0.24384 7.07133 1.2192
          CHANNELS 3 Zrotation Xrotation Yrotation
          JOINT leftEye
          {
            OFFSET 4.14528 8.04674 8.04672
            CHANNELS 3 Zrotation Xrotation Yrotation
            End Site
            {
              OFFSET 1 0 0
            }
          }
          JOINT rightEye
          {
            OFFSET -3.6576 8.04674 8.04672
            CHANNELS 3 Zrotation Xrotation Yrotation
            End Site
            {
              OFFSET 1 0 0
            }
          }
        }
      }
      JOINT rCollar
      {
        OFFSET -2.68224 19.2634 -4.8768
        CHANNELS 3 Zrotation Xrotation Yrotation
        JOINT rShldr
        {
          OFFSET -8.77824 -1.95073 1.46304
          CHANNELS 3 Zrotation Xrotation Yrotation
          JOINT rForeArm
          {
            OFFSET -28.1742 -1.7115 0.48768
            CHANNELS 3 Zrotation Xrotation Yrotation
            JOINT rHand
            {
              OFFSET -22.5879 0.773209 7.07136
              CHANNELS 3 Zrotation Xrotation Yrotation
              JOINT rThumb1
              {
                OFFSET -1.2192 -0.487915 3.41376
                CHANNELS 3 Zrotation Xrotation Yrotation
                JOINT rThumb2
                {
                  OFFSET -3.37035 -0.52449 3.41376
                  CHANNELS 3 Zrotation Xrotation Yrotation
                  End Site
                  {
                    OFFSET -1.78271 -1.18214 1.43049
                  }
                }
              }
              JOINT rIndex1
              {
                OFFSET -7.75947 0.938293 5.60832
                CHANNELS 3 Zrotation Xrotation Yrotation
                JOINT rIndex2
                {
                  OFFSET -2.54057 -0.884171 1.56538
                  CHANNELS 3 Zrotation Xrotation Yrotation
                  End Site
                  {
                    OFFSET -1.62519 -0.234802 1.16502
                  }
                }
              }
              JOINT rMid1
              {
                OFFSET -8.24714 1.18213 3.41376
                CHANNELS 3 Zrotation Xrotation Yrotation
                JOINT rMid2
                {
                  OFFSET -3.10165 -0.590103 1.0647
                  CHANNELS 3 Zrotation Xrotation Yrotation
                  End Site
                  {
                    OFFSET -2.48547 -0.328903 0.83742
                  }
                }
              }
              JOINT rRing1
              {
                OFFSET -8.82822 0.546677 1.51678
                CHANNELS 3 Zrotation Xrotation Yrotation
                JOINT rRing2
                {
                  OFFSET -2.60934 -0.819778 -0.0198488
                  CHANNELS 3 Zrotation Xrotation Yrotation
                  End Site
                  {
                    OFFSET -2.33842 -0.294052 0.168128
                  }
                }
              }
              JOINT rPinky1
              {
                OFFSET -8.27202 -0.0477905 -0.4584
                CHANNELS 3 Zrotation Xrotation Yrotation
                JOINT rPinky2
                {
                  OFFSET -1.82734 -0.647385 -0.700984
                  CHANNELS 3 Zrotation Xrotation Yrotation
                  End Site
                  {
                    OFFSET -1.69225 -0.51767 -0.607171
                  }
                }
              }
            }
          }
        }
      }
      JOINT lCollar
      {
        OFFSET 2.68224 19.2634 -4.8768
        CHANNELS 3 Zrotation Xrotation Yrotation
        JOINT lShldr
        {
          OFFSET 8.77824 -1.95073 1.46304
          CHANNELS 3 Zrotation Xrotation Yrotation
          JOINT lForeArm
          {
            OFFSET 28.1742 -1.7115 0.48768
            CHANNELS 3 Zrotation Xrotation Yrotation
            JOINT lHand
            {
              OFFSET 22.5879 0.773209 7.07136
              CHANNELS 3 Zrotation Xrotation Yrotation
              JOINT lThumb1
              {
                OFFSET 1.2192 -0.487915 3.41376
                CHANNELS 3 Zrotation Xrotation Yrotation
                JOINT lThumb2
                {
                  OFFSET 3.37035 -0.52449 3.41376
                  CHANNELS 3 Zrotation Xrotation Yrotation
                  End Site
                  {
                    OFFSET 1.78271 -1.18214 1.43049
                  }
                }
              }
              JOINT lIndex1
              {
                OFFSET 7.75947 0.938293 5.60832
                CHANNELS 3 Zrotation Xrotation Yrotation
                JOINT lIndex2
                {
                  OFFSET 2.54057 -0.884171 1.56538
                  CHANNELS 3 Zrotation Xrotation Yrotation
                  End Site
                  {
                    OFFSET 1.62519 -0.234802 1.16502
                  }
                }
              }
              JOINT lMid1
              {
                OFFSET 8.24714 1.18213 3.41376
                CHANNELS 3 Zrotation Xrotation Yrotation
                JOINT lMid2
                {
                  OFFSET 3.10165 -0.590103 1.0647
                  CHANNELS 3 Zrotation Xrotation Yrotation
                  End Site
                  {
                    OFFSET 2.48547 -0.328903 0.83742
                  }
                }
              }
              JOINT lRing1
              {
                OFFSET 8.82822 0.546677 1.51678
                CHANNELS 3 Zrotation Xrotation Yrotation
                JOINT lRing2
                {
                  OFFSET 2.60934 -0.819778 -0.0198488
                  CHANNELS 3 Zrotation Xrotation Yrotation
                  End Site
                  {
                    OFFSET 2.33842 -0.294052 0.168128
                  }
                }
              }
              JOINT lPinky1
              {
                OFFSET 8.27202 -0.0477905 -0.4584
                CHANNELS 3 Zrotation Xrotation Yrotation
                JOINT lPinky2
                {
                  OFFSET 1.82734 -0.647385 -0.700984
                  CHANNELS 3 Zrotation Xrotation Yrotation
                  End Site
                  {
                    OFFSET 1.69225 -0.51767 -0.607171
                  }
                }
              }
            }
          }
        }
      }
    }
  }
  JOINT rButtock
  {
    OFFSET -8.77824 4.35084 1.2192
    CHANNELS 3 Zrotation Xrotation Yrotation
    JOINT rThigh
    {
      OFFSET 0 -1.70687 -2.19456
      CHANNELS 3 Zrotation Xrotation Yrotation
      JOINT rShin
      {
        OFFSET 0 -36.8199 0.73152
        CHANNELS 3 Zrotation Xrotation Yrotation
        JOINT rFoot
        {
          OFFSET 0.73152 -45.1104 -5.12064
          CHANNELS 3 Zrotation Xrotation Yrotation
          End Site
          {
            OFFSET -1.1221 -3.69964 12.103
          }
        }
      }
    }
  }
  JOINT lButtock
  {
    OFFSET 8.77824 4.35084 1.2192
    CHANNELS 3 Zrotation Xrotation Yrotation
    JOINT lThigh
    {
      OFFSET 0 -1.70687 -2.19456
      CHANNELS 3 Zrotation Xrotation Yrotation
      JOINT lShin
      {
        OFFSET 0 -36.8199 0.73152
        CHANNELS 3 Zrotation Xrotation Yrotation
        JOINT lFoot
        {
          OFFSET -0.73152 -45.1104 -5.12064
          CHANNELS 3 Zrotation Xrotation Yrotation
          End Site
          {
            OFFSET 1.1221 -3.69964 12.103
          }
        }
      }
    }
  }
}
MOTION
Frames:	8
Frame Time:	0.00833333
-65.4793 86.5921 48.1746 166.915742 69.159056 175.231764 -13.967074 2.461578 87.518894 3.717727 0.216583 -84.252678 -17.166072 29.303495 -51.521177 67.038756 -20.932792 11.51566 -0.006303 0.0 -0.001513 -0.001063 0.0 -0.003417 -13.74408 42.431337 15.570051 -26.572559 -70.797096 49.824548 6.889613 11.446025 -50.85043 13.484582 -36.256509 40.555139 88.928072 -50.831262 37.600101 -137.777868 17.752993 100.679191 -2.685758 4.226815 1.584185 7.047086 5.697816 0.494007 -36.035269 51.723708 29.831193 14.059258 -31.9149 -1.19583 0.000735 -0.061029 -0.017943 6.918831 29.712418 4.674517 -25.538163 -38.087261 -24.598814 -4.650942 -17.955759 -7.221048 -1.675435 -11.490076 2.386217 -85.714727 16.921527 1.096734 12.812672 -14.565368 -115.957879 3.160661 37.754457 -5.184806 121.364753 30.329913 -71.958159 29.745371 -15.948915 -29.519029 146.662141 -8.59848 -119.301327 62.746253 57.191341 -45.788438 39.28833 53.366975 -32.876081 -42.921868 -69.723213 -17.230493 -0.003863 1.770601 -0.555223 -8.937211 14.181336 -1.883653 143.937938 8.265678 140.71894 162.33779 55.877196 146.675231 179.995017 75.749633 0.003409 164.587131 36.630546 9.092419 4.782895 35.949095 -31.61388 -94.499439 -48.419863 15.575095 -179.995313 75.748705 -0.003207 178.906962 53.181864 177.257028 4.500198 -46.22508 -52.871986 93.144502 55.849982 170.511442
-65.2087 86.6529 47.8737 167.086059 68.37588 175.40198 -11.938571 4.610667 0.470648 -2.180143 1.632472 1.711818 5.629253 35.689477 110.742121 -70.029845 22.881912 -147.689158 -0.002376 -0.0 0.004308 0.000688 -0.0 -0.002277 -9.65154 34.836213 11.199112 -128.175765 52.350497 56.582241 -157.082456 -7.776693 137.933019 -1.356831 4.551555 34.612987 -89.136284 38.426753 50.298978 -134.522489 -22.027082 78.957436 -46.209489 39.652457 36.318254 94.961865 -63.552116 46.122159 13.806456 -42.12269 -2.984768 -21.792006 46.047028 17.598033 -145.120103 0.184886 -179.187774 -30.077187 -73.744589 -51.354048 -12.374276 -24.158075 -11.757948 -154.475086 39.143721 -148.544271 -0.16295 -0.990121 0.217956 -87.061633 -2.792172 -8.269128 -4.753297 19.150237 -117.473299 13.915791 61.203709 -9.292685 -169.031421 -27.077976 -86.618377 149.780602 11.183338 -84.875378 166.866394 -44.037228 -122.052294 -2.978008 20.055632 4.795006 160.097897 -4.901267 -142.968685 42.491166 58.273839 -36.600959 74.84094 72.962393 -92.827446 76.584634 83.273025 -85.476767 54.048604 -50.329955 52.727685 52.138639 -52.805326 53.221211 179.99508 75.749897 0.004048 165.548088 35.037573 -165.504742 -5.832921 -40.325447 106.932108 -12.647165 -58.251908 78.22925 -0.000604 0.001516 -0.000906 -0.859964 -19.855274 6.552249 -0.969272 46.438281 168.965608 178.368595 14.571612 -171.378995
-64.8472 86.6139 47.6161 167.770859 67.890906 175.979983 -9.688086 2.400777 -82.835497 -4.429909 -4.098987 83.801145 -17.025184 37.29916 -98.679394 72.489013 23.707322 28.219552 -0.00117 -0.0 0.001852 -0.003309 0.0 -0.002876 4.224846 -44.097099 -8.516702 -106.046578 -15.467154 106.368302 -163.514742 82.863191 -177.097718 -169.676648 42.186826 175.759137 1.600466 -1.586392 -0.225096 27.54931 -48.197278 -18.606117 -0.326801 0.5299 0.187566 174.908531 -41.214487 102.980309 -160.674234 -6.66748 143.245869 3.0845 0.392024 0.412002 -145.1101 -0.669407 -178.919494 -152.350978 -24.841825 -175.377618 -144.260375 9.238329 -141.0084 -148.211625 13.798784 -142.17604 -4.209069 -43.44314 8.38341 -80.870723 9.493312 32.789355 173.450672 -16.836002 -28.916382 -138.201301 -49.888275 -128.433805 3.561932 3.47751 -0.652829 56.808728 27.341451 -52.816268 0.327548 0.52998 -0.185766 65.771493 48.398999 -50.660251 160.674069 -6.667558 -143.245686 11.854348 33.63724 -9.67796 145.122802 1.974887 179.748939 63.185561 87.659933 -76.274022 156.38031 53.734584 150.117702 -9.904526 24.335203 -4.00966 0.000199 0.001324 -0.000255 -14.1584 -36.073331 -8.678499 5.573235 45.92457 -153.324521 75.925029 -11.786047 174.15336 -0.0 -0.000446 -0.000202 -0.797418 -19.359929 -0.279308 -13.911939 43.214494 -132.543089 93.895946 -41.389067 179.101138
-64.40090000000001 86.5149 47.3789 168.557757 67.692114 176.532736 -14.357497 2.33933 80.939595 3.886639 0.729269 -80.284992 -16.629624 37.053064 -98.696864 70.904262 23.751271 28.744395 0.000471 -0.0 -0.001988 -0.001718 0.0 -0.003956 -13.743043 42.431658 15.568945 -156.526054 63.546284 82.967211 177.821637 -32.219037 125.380342 22.051463 -43.991089 44.910008 -115.533955 32.702418 68.305284 -92.059279 -4.839969 55.963082 -151.354161 -17.157983 121.133437 -87.793187 56.539438 69.284767 -86.295651 60.960652 77.857084 -13.324303 36.37903 10.873691 0.004597 1.68775 0.52874 10.974044 -13.797026 -1.713366 -56.339504 -50.724374 -54.99634 21.413588 58.109323 8.321147 -0.162562 -0.990144 0.218045 -85.728707 -6.094193 -7.358296 -74.590262 48.419015 -74.610015 172.113827 57.489872 -152.696451 0.441997 0.435076 -0.069963 137.009601 -39.67247 -118.424295 27.608748 30.766423 -20.254354 77.778501 49.32716 -57.450887 -3.453003 -10.534327 1.681483 -2.908885 0.838634 -0.08956 0.021722 -1.725805 0.544046 -10.910142 -6.937968 0.914224 136.278016 -10.956733 133.618947 9.600602 -24.114335 12.434631 -179.99953 75.750377 -0.000485 167.513925 38.298572 -50.269279 -27.100685 27.862368 124.877217 -62.212484 47.033178 -17.903397 -179.99953 75.750377 -0.000485 178.695823 56.839981 -0.0 -12.01689 33.834559 -40.208792 -15.97575 -17.91486 25.747682
-63.923399999999994 86.34960000000001 47.1617 169.208988 67.824163 176.905917 -9.392426 1.42894 -98.57316 -4.069633 -5.659033 98.089163 -16.76844 35.590416 -91.741368 69.263685 17.591488 26.732557 -0.003812 -0.0 0.000229 0.001547 -0.0 -0.001526 3.268786 -26.755825 -5.241749 -32.68868 0.398964 94.7754 1.393664 -15.131001 -50.226105 19.200875 -37.074217 41.388763 -166.744773 -4.418575 89.780296 -95.933046 9.440509 39.298573 159.63988 -69.972943 102.395108 -83.647147 54.310153 69.709296 -169.089479 -33.247382 145.375112 -167.524368 -17.3411 143.850282 0.000961 -0.018479 -0.006054 -149.748449 39.769476 164.571238 -144.10922 8.781726 -140.874849 22.487278 58.009335 5.983356 14.148584 43.061455 -15.996889 95.055969 -6.805058 -125.93458 -0.683679 -11.067617 149.984815 -140.07503 -48.812874 -129.740643 -1.842736 -1.826989 0.254593 -24.407278 -42.671594 17.79957 -129.220398 -75.530489 -76.34569 -4.156941 20.260063 1.988008 39.28793 53.366692 -32.877016 -3.114471 0.86842 -0.193761 0.014109 -1.322856 0.417821 -9.811593 -62.545911 9.184694 157.327316 57.246255 150.514067 86.509471 -52.203405 85.129378 179.775256 75.74918 0.17322 167.486137 39.635416 -0.0 -4.813881 46.105689 -136.048028 -75.666563 56.037789 -176.494299 -0.002198 0.001317 -0.001099 -0.542478 -18.54907 -1.704829 -8.043581 46.120786 173.586944 -90.795382 24.69497 178.737745
-63.414 86.1581 47.0024 170.113927 68.34869 177.503819 -13.657536 1.530419 91.282558 4.718609 0.372804 -91.759509 -16.937625 32.544633 -76.945807 66.630481 4.375178 21.442536 -0.001042 -0.0 0.000333 0.004328 -0.0 -0.001422 -80.1663 68.370614 83.261046 6.953747 77.226245 -75.056103 179.04003 -32.562363 125.710909 31.521061 -49.182608 50.192208 -168.725919 -6.405694 89.898717 71.555082 -66.914569 54.659519 -148.885291 -12.61023 120.244342 -79.511649 57.403239 61.366573 -39.289189 53.365875 32.878326 -2.888142 16.914721 3.292657 9.2e-05 -0.061101 -0.017458 -141.811936 -80.966046 -164.254948 -7.40705 -16.18318 -6.980948 75.627932 86.508495 -36.683124 -3.268678 -26.755755 5.242701 88.347682 -17.794187 160.885886 176.526036 2.583755 65.283526 11.883743 56.527772 -7.500682 6.581494 6.344608 -1.366353 -10.328383 -11.565272 3.330687 151.353506 -17.158223 -121.133323 -179.648746 -47.152626 -113.513981 -153.671058 -76.484271 -121.220223 -2.975263 0.153915 -0.237813 145.118962 0.309892 179.226155 153.634873 -16.85702 176.819591 138.44292 -6.228433 135.656901 -1.818607 -2.121455 2.598766 0.001899 0.000218 0.000949 -10.566871 -36.329745 -180.0 -8.062391 -48.029612 37.535107 -169.209423 30.410512 -119.507255 -0.001518 -0.000735 -0.000759 -0.087228 -18.305308 0.543061 -14.644938 39.4277 -86.725707 165.714434 -65.128396 -97.993046
-62.8712 85.95819999999999 46.9061 171.451872 69.285025 178.545815 -8.182903 1.465243 -87.614444 -4.983175 -5.296154 86.227268 4.972751 27.00304 71.071384 -57.020733 -13.771066 -130.27761 -0.002811 0.0 -0.001611 -0.002811 0.0 -0.001611 -44.92232 -86.287641 -66.530041 -89.944442 -33.372814 160.954812 171.595068 74.818582 -152.253149 -171.14169 54.932141 173.073941 -169.560417 -7.24359 89.930622 -71.459445 1.556917 22.410369 -46.209282 39.652527 36.318289 12.995948 -9.736631 -3.377402 -8.416294 20.880704 5.643918 2.472025 2.460125 0.331998 0.000269 -0.018538 -0.005656 -155.401398 -0.940402 171.960192 -7.144723 -15.707064 -6.729041 -127.023809 -30.942256 -125.729336 153.049799 10.023508 -158.66832 -117.030722 -20.146247 -167.139156 166.076852 23.129483 -23.997918 -134.309856 -53.404028 -123.504095 169.320529 -7.000609 -89.921308 -91.098465 -65.792719 -68.556572 169.722766 -47.987668 -121.305103 -96.812097 -69.930688 -40.869313 39.288665 53.366634 -32.876736 -3.115935 0.868625 -0.194746 0.006434 3.473766 -1.092347 -7.169448 26.534792 -4.014882 -5.662312 16.872317 -5.08777 147.972815 12.688051 143.88143 0.0 -0.00054 0.000117 -8.540216 -33.21043 -4.844516 14.693672 40.416637 78.352837 -146.383262 -57.391694 126.403013 179.999921 75.748424 8.1e-05 -178.745334 57.598732 -4.062899 -18.338497 41.837756 -105.018559 70.594356 -62.240892 155.766867
-62.297599999999996 85.75789999999999 46.854099999999995 173.045166 70.574034 179.873213 -7.343413 1.04214 -91.082967 -4.939415 -5.884477 89.477659 -16.271043 34.726256 -97.329022 65.563844 22.643577 32.825513 0.002688 -0.0 -0.00048 0.002688 -0.0 -0.00048 -0.049159 0.292376 0.065068 63.055708 -10.923263 100.540296 -5.374385 -75.897917 8.218463 -156.014494 72.851789 160.346888 -176.928062 -14.532316 89.658545 -41.604825 -20.261236 3.586295 -83.732752 42.331363 69.990023 -160.315389 -3.271801 113.92379 2.099889 -6.305518 -1.080594 -54.346503 62.012618 47.635491 0.005968 0.87646 0.273611 9.159245 12.71675 1.667443 -80.938216 -51.227914 -79.36009 -22.608951 -39.789157 -24.681494 -2.529746 -18.881246 3.793803 96.547144 11.808926 168.541471 17.895371 31.001068 140.559883 -119.851778 -59.901211 -109.367444 -4.531126 -4.514004 0.520565 105.674176 11.360568 -95.906007 -11.981673 -21.346769 5.061515 7.340505 26.313102 -7.827847 160.828175 -7.141616 -143.315809 -9.976007 -20.332297 1.138905 145.121128 0.267121 179.213676 -12.110299 44.670861 3.865533 -0.21085 0.551869 -0.194912 5.24264 -17.920689 6.86343 -0.000945 0.001001 0.001215 -6.380446 -32.228122 -11.842407 -11.20607 44.171112 -81.169134 93.224384 75.125546 5.085863 179.990958 75.75082 0.007439 -177.547394 57.66268 -2.902079 -4.079571 36.356488 20.302066 -95.581298 18.795114 3.426099
